<svg width="163" height="6" viewBox="0 0 163 6" fill="none" xmlns="http://www.w3.org/2000/svg">
<path d="M0 4.28571C0 1.91878 1.91878 0 4.28571 0H48.7143C51.0812 0 53 1.91878 53 4.28571V4.28571C53 5.23249 52.2325 6 51.2857 6H49.8284C49.298 6 48.7893 5.78929 48.4142 5.41421L47.5858 4.58579C47.2107 4.21071 46.702 4 46.1716 4H26.5H6.82843C6.29799 4 5.78929 4.21071 5.41421 4.58579L4.58579 5.41421C4.21071 5.78929 3.70201 6 3.17157 6H1.71429C0.767512 6 0 5.23249 0 4.28571V4.28571Z" fill="white"/>
<path d="M55 4.28571C55 1.91878 56.9188 0 59.2857 0H103.714C106.081 0 108 1.91878 108 4.28571V4.28571C108 5.23249 107.232 6 106.286 6H104.828C104.298 6 103.789 5.78929 103.414 5.41421L102.586 4.58579C102.211 4.21071 101.702 4 101.172 4H81.5H61.8284C61.298 4 60.7893 4.21071 60.4142 4.58579L59.5858 5.41421C59.2107 5.78929 58.702 6 58.1716 6H56.7143C55.7675 6 55 5.23249 55 4.28571V4.28571Z" fill="white"/>
<path d="M110 4.28571C110 1.91878 111.919 0 114.286 0H158.714C161.081 0 163 1.91878 163 4.28571V4.28571C163 5.23249 162.232 6 161.286 6H159.828C159.298 6 158.789 5.78929 158.414 5.41421L157.586 4.58579C157.211 4.21071 156.702 4 156.172 4H136.5H116.828C116.298 4 115.789 4.21071 115.414 4.58579L114.586 5.41421C114.211 5.78929 113.702 6 113.172 6H111.714C110.768 6 110 5.23249 110 4.28571V4.28571Z" fill="white"/>
</svg>
