<svg width="163" height="6" viewBox="0 0 163 6" fill="none" xmlns="http://www.w3.org/2000/svg">
<path d="M4.28571 0.5H48.7143C50.8051 0.5 52.5 2.19492 52.5 4.28571C52.5 4.95635 51.9563 5.5 51.2857 5.5H49.8284C49.4306 5.5 49.0491 5.34196 48.7678 5.06066L47.9393 4.23223C47.4705 3.76339 46.8346 3.5 46.1716 3.5H26.5H6.82843C6.16539 3.5 5.5295 3.76339 5.06066 4.23223L4.23223 5.06066C3.95093 5.34197 3.5694 5.5 3.17157 5.5H1.71429C1.04365 5.5 0.5 4.95635 0.5 4.28571C0.5 2.19492 2.19492 0.5 4.28571 0.5Z" fill="white" fill-opacity="0.01" stroke="white"/>
<path d="M59.2857 0.5H103.714C105.805 0.5 107.5 2.19492 107.5 4.28571C107.5 4.95635 106.956 5.5 106.286 5.5H104.828C104.431 5.5 104.049 5.34196 103.768 5.06066L102.939 4.23223C102.47 3.76339 101.835 3.5 101.172 3.5H81.5H61.8284C61.1654 3.5 60.5295 3.76339 60.0607 4.23223L59.2322 5.06066C58.9509 5.34197 58.5694 5.5 58.1716 5.5H56.7143C56.0437 5.5 55.5 4.95635 55.5 4.28571C55.5 2.19492 57.1949 0.5 59.2857 0.5Z" fill="white" fill-opacity="0.01" stroke="white"/>
<path d="M114.286 0.5H158.714C160.805 0.5 162.5 2.19492 162.5 4.28571C162.5 4.95635 161.956 5.5 161.286 5.5H159.828C159.431 5.5 159.049 5.34196 158.768 5.06066L157.939 4.23223C157.47 3.76339 156.835 3.5 156.172 3.5H136.5H116.828C116.165 3.5 115.53 3.76339 115.061 4.23223L114.232 5.06066C113.951 5.34197 113.569 5.5 113.172 5.5H111.714C111.044 5.5 110.5 4.95635 110.5 4.28571C110.5 2.19492 112.195 0.5 114.286 0.5Z" fill="white" fill-opacity="0.01" stroke="white"/>
</svg>
