<svg width="37" height="49" viewBox="0 0 37 49" fill="none" xmlns="http://www.w3.org/2000/svg">
<path d="M14.7493 12L5.48717 9.10062C4.83761 8.89729 4.83761 8.10269 5.48717 7.89936L14.7493 5H30.523C31.3388 5 32 5.57196 32 6.27751V10.7225C32 11.428 31.3388 12 30.523 12H14.7493Z" fill="#D9D9D9"/>
<path d="M14.7493 23L5.48717 19.6864C4.83761 19.4541 4.83761 18.5459 5.48717 18.3136L14.7493 15H30.523C31.3388 15 32 15.6536 32 16.46V21.54C32 22.3464 31.3388 23 30.523 23H14.7493Z" fill="#D9D9D9"/>
<path d="M14.7493 34L5.48717 30.6864C4.83761 30.4541 4.83761 29.5459 5.48717 29.3136L14.7493 26H30.523C31.3388 26 32 26.6537 32 27.46V32.54C32 33.3464 31.3388 34 30.523 34H14.7493Z" fill="#D9D9D9"/>
<path d="M14.7493 44L5.48717 41.1006C4.83761 40.8973 4.83761 40.1027 5.48717 39.8994L14.7493 37H30.523C31.3388 37 32 37.572 32 38.2775V42.7225C32 43.4281 31.3388 44 30.523 44H14.7493Z" fill="#D9D9D9"/>
</svg>
