<svg width="37" height="37" viewBox="0 0 37 37" fill="none" xmlns="http://www.w3.org/2000/svg">
<path d="M8.94391 30L1.39696 27.1006C0.867678 26.8973 0.867684 26.1027 1.39696 25.8994L8.94391 23H21.7965C22.4612 23 23 23.572 23 24.2775V28.7225C23 29.428 22.4612 30 21.7965 30H8.94391Z" fill="#D9D9D9"/>
<path d="M14.9439 21L7.39696 18.5148C6.86768 18.3405 6.86768 17.6595 7.39696 17.4852L14.9439 15H27.7965C28.4612 15 29 15.4903 29 16.095V19.905C29 20.5097 28.4612 21 27.7965 21H14.9439Z" fill="#D9D9D9"/>
<path d="M20.9439 13L13.397 10.1006C12.8677 9.89729 12.8677 9.1027 13.397 8.89936L20.9439 6H33.7965C34.4612 6 35 6.57196 35 7.27751V11.7225C35 12.428 34.4612 13 33.7965 13H20.9439Z" fill="#D9D9D9"/>
</svg>
