<svg width="43" height="28" viewBox="0 0 43 28" fill="none" xmlns="http://www.w3.org/2000/svg">
<path d="M9.795 14.329L5.954 5.75H12.877L14.924 11.638H15.729L18.144 5.75H24.883L21.042 14.329L24.975 23H18.029L15.729 16.882H14.924L12.647 23H5.862L9.795 14.329ZM25.4427 5.75H39.1737C40.2317 5.75 41.0367 6.01067 41.5887 6.532C42.1561 7.038 42.4397 7.75867 42.4397 8.694V15.226C42.4397 16.1613 42.1561 16.8897 41.5887 17.411C41.0367 17.917 40.2317 18.17 39.1737 18.17H31.5377V23H25.4427V5.75ZM36.1147 14.007C36.2987 14.007 36.3907 13.915 36.3907 13.731V10.189C36.3907 10.005 36.2987 9.913 36.1147 9.913H31.5377V14.007H36.1147Z" fill="white"/>
<path fill-rule="evenodd" clip-rule="evenodd" d="M2.50533 8L2 8.91349L5.00408 14.5085L4.68377 15.1053L4.68537 15.102L2.01616 20.0727L2.5142 21C3.25194 19.6262 5.31156 15.7906 6 14.5085C5.48869 13.5557 5.98732 14.4843 2.50533 8Z" fill="white" stroke="white" stroke-width="2"/>
</svg>
