<svg width="78" height="26" viewBox="0 0 78 26" fill="none" xmlns="http://www.w3.org/2000/svg">
<path fill-rule="evenodd" clip-rule="evenodd" d="M77.9814 7.4027V10.3805L77.8877 10.5373L63.6019 10.5064L63.5704 9.94176L63.8517 9.91089L63.8832 9.6907L59.2986 9.62895V9.50301L57.3959 9.5347L57.0216 9.65901L53.7157 9.62814L54.3704 9.75407V10.3188L54.2144 10.5073L53.4975 10.4756V10.7266H52.9664V9.78576H53.0917V9.65901L51.0637 9.59726L51.0015 9.78576L50.9384 10.2554C50.9182 10.2968 50.8972 10.3285 50.8762 10.3496C50.835 10.3911 50.7824 10.4122 50.7202 10.4122C50.679 10.3919 50.6264 10.3602 50.5642 10.3188L50.4397 10.2554L50.4704 9.81583L50.4082 9.62814H50.0033L49.9709 10.318C49.9507 10.3797 49.9095 10.4219 49.8473 10.4431L49.722 10.5373H49.5037L49.317 10.9452L37.807 11.0386L37.5887 10.9143L37.3074 10.8509L36.715 11.0703L36.6527 10.2863L36.0902 10.3188L36.1209 10.8201L36.0902 10.8835C36.0691 10.946 36.0384 10.998 35.9964 11.0394C35.9544 11.0606 35.8921 11.0817 35.8089 11.1028L35.7151 11.1345C35.6949 11.1134 35.6626 11.1028 35.6213 11.1028C35.5381 11.1028 35.4767 11.1443 35.4338 11.2288C35.3918 11.2913 35.3506 11.3539 35.3093 11.4164L35.2471 11.5416V14.2066L35.433 14.2699L35.4645 14.4893L35.0588 14.6461V15.6179C35.1008 16.3711 35.1946 17.0706 35.3401 17.7182C35.4864 18.3666 35.7143 19.1823 36.0263 20.1646C36.1726 20.6668 36.3076 21.095 36.4321 21.4492L36.5557 21.6068L31.8466 22.9239H31.7222V22.798C31.5767 22.2966 31.4102 21.7425 31.2226 21.1364C30.8686 19.8827 30.6302 18.9524 30.5049 18.3463C30.3812 17.7401 30.2963 17.1129 30.2551 16.4653L30.1929 15.6504L29.8493 15.713L29.4129 15.6504H26.4812L25.5145 15.7438C25.4725 15.7438 25.4207 15.7438 25.3593 15.7438C25.213 15.7438 25.0982 15.7747 25.0158 15.8381C24.9535 15.9006 24.8905 15.964 24.8282 16.0266L24.1428 17.3436L24.4847 17.7515L24.3918 17.8133C24.2665 17.8555 24.121 17.9181 23.9537 18.001C23.8712 18.0432 23.7985 18.1049 23.7362 18.1894L23.6732 18.2837L22.3314 20.9178C22.2902 21.0007 22.2805 21.0844 22.3007 21.1681C22.3209 21.2306 22.3735 21.3143 22.4567 21.4183C22.4979 21.4598 22.5392 21.4915 22.5812 21.5134L22.4567 21.7945L18.0588 20.7602L22.0202 13.8621C22.0615 13.7784 22.0922 13.6849 22.114 13.5793C22.1973 13.3916 22.2183 13.2039 22.1763 13.0154C22.114 12.7863 22.0421 12.5978 21.958 12.4524C21.8546 12.3061 21.7398 12.1802 21.6153 12.0762C21.49 11.9925 21.3655 11.9299 21.2411 11.8877L20.2428 11.856V11.9819L19.9615 12.0128L19.9308 10.2879L19.1508 10.257L19.1193 9.97426H15.9694L15.2209 10.5389L12.2569 10.6023V10.8851L9.66796 10.9168L9.69948 12.5466H7.89134V13.2056H7.01838V12.5791L4.08591 14.4292V12.9236L0.374238 14.6169L0.343523 15.2433L0.312 15.3376C0.269969 15.4213 0.21743 15.4627 0.156 15.4627C0.09457 15.4627 0.0525389 15.4213 0.0315233 15.3376L0 15.2409L0.0630466 6.90139H3.36895C3.43119 6.9217 3.47241 6.96314 3.49343 7.02651C3.53465 7.1102 3.56618 7.25645 3.588 7.46526L12.1033 7.56032C12.1454 7.58145 12.1761 7.60176 12.1963 7.62207C12.2375 7.66432 12.2585 7.71632 12.2585 7.77807L19.1524 7.81057L19.1209 7.52782H19.9316V7.30845L20.2121 7.27757L20.2436 7.49614L21.0535 7.46526V7.08907H21.8651L21.9281 7.15245L24.0175 3.79682L24.1105 3.67251C24.1946 3.5677 24.277 3.50514 24.3611 3.48482C24.4435 3.42145 24.5486 3.38001 24.6722 3.35889C24.7353 3.35889 24.7975 3.35889 24.8598 3.35889L35.2471 4.48745L35.5583 4.55001C35.8081 4.6337 35.9843 4.73851 36.0885 4.86364C36.192 5.0107 36.2963 5.18782 36.3997 5.39664C36.4418 5.50064 36.4838 5.59489 36.5242 5.67939L36.4628 7.71714L36.681 7.68545L36.7117 6.77545L37.3673 6.90139V6.6812L37.5855 6.64951C37.5855 6.6292 37.5855 6.60807 37.5855 6.58776C37.6065 6.54551 37.6275 6.51382 37.6477 6.4927C37.689 6.47157 37.7423 6.45126 37.8037 6.43014L49.3453 6.61782L49.4706 6.8697V7.18251L49.7826 7.21501L49.8448 7.24589C49.9071 7.28732 49.9378 7.32957 49.9378 7.37101C49.958 7.4547 49.9798 7.70576 50.0008 8.12339H50.4058L50.4373 6.90139L52.34 4.2047L52.5267 4.04789C52.6512 3.94307 52.7765 3.90164 52.901 3.92276C53.213 3.9642 53.4417 4.07876 53.5872 4.26726C53.6495 4.32982 53.6802 4.40295 53.6802 4.48664C53.6802 4.52807 53.6697 4.55976 53.6495 4.58089L53.6802 8.12339H56.9877L57.4242 8.2802L59.2962 8.24932V8.12339H63.8808V7.27757H77.8545L77.9814 7.4027ZM52.9964 6.27332C52.9341 6.23189 52.8824 6.17989 52.8412 6.11651C52.8201 6.05395 52.7781 5.91826 52.7159 5.70945L52.6844 5.39582L51.9666 5.33326L50.8439 7.08826L51.0007 7.2142H53.1216L53.2768 7.0257V6.27332H52.9964ZM51.0314 8.12339H53.0271L53.1208 7.81057H51.0314V8.12339ZM35.3102 4.98795H26.5758C26.5135 4.98795 26.4408 4.98795 26.3583 4.98795C26.212 5.0302 26.0981 5.0822 26.0148 5.14476C25.9316 5.20814 25.8378 5.30157 25.7343 5.4267L25.6091 5.58351L25.1103 6.80714L25.2971 6.99482L35.2479 6.93145L35.3716 6.90057C35.4557 6.87945 35.5381 6.8372 35.6213 6.77464C35.8711 6.60726 35.9956 6.33507 35.9956 5.95889C35.9956 5.64526 35.8808 5.39501 35.6521 5.20732C35.5688 5.14395 35.4856 5.09195 35.4031 5.05051L35.3102 4.98795ZM2.99472 10.8835L2.86943 10.8518H0.561762L0.437285 10.8835C0.374238 10.946 0.343523 11.0086 0.343523 11.0711C0.343523 11.1337 0.384746 11.1857 0.468 11.228C0.488207 11.2491 0.519731 11.2694 0.561762 11.2905H2.90176C2.94379 11.2694 2.97451 11.2385 2.99552 11.1963C3.05776 11.1337 3.08929 11.0817 3.08929 11.0394C3.08848 10.9769 3.05695 10.9257 2.99472 10.8835ZM0.343523 7.18251V7.52782H3.30672C3.30672 7.46526 3.29621 7.39214 3.27519 7.30845C3.27519 7.24589 3.24367 7.20445 3.18143 7.18251L3.05695 7.15164L0.343523 7.18251ZM29.0095 13.1715C28.9263 13.1292 28.843 13.0991 28.7598 13.078H27.5748C27.4916 13.1398 27.3978 13.234 27.2935 13.3591C27.127 13.6313 27.0341 13.8816 27.0122 14.1115C26.992 14.3415 27.0656 14.5714 27.2313 14.8013C27.3145 14.9061 27.4075 14.9906 27.5126 15.0524L27.3873 15.1466C27.2628 15.0833 27.1278 14.9793 26.9815 14.833C26.7124 14.582 26.5661 14.3106 26.5451 14.0181C26.5249 13.8304 26.5661 13.611 26.6703 13.3591L26.7948 13.078C26.6073 13.0983 26.4303 13.1609 26.2638 13.2649C25.8903 13.516 25.7246 13.8816 25.7659 14.3626C25.7869 14.6348 25.9219 14.8858 26.1708 15.1158C26.2953 15.2409 26.4206 15.3351 26.5451 15.3985H29.3522V15.0223C29.4565 14.9386 29.539 14.8135 29.602 14.6461C29.7055 14.3528 29.6853 14.0295 29.539 13.6744C29.4355 13.4648 29.2593 13.2974 29.0095 13.1715Z" fill="white"/>
<path d="M77.9814 10.3805V7.40271L77.8545 7.27759H63.8808V8.1234L62.2383 8.12505V9.66753L63.8832 9.69071L63.8517 9.9109L63.5704 9.94178L63.6019 10.5065L77.8876 10.5373L77.9814 10.3805Z" fill="#F8AA53"/>
</svg>
