<svg width="69.25px" height="32px" viewBox="0 0 69.25 32" fill="none" xmlns="http://www.w3.org/2000/svg">
<path fill-rule="evenodd" clip-rule="evenodd" d="M68.96 6.57309C68.96 7.28709 68.918 7.86709 68.827 8.31209C68.796 8.61009 68.707 8.92209 68.558 9.24909C68.501 9.39809 68.442 9.53009 68.381 9.64909H54.511L54.332 9.51609L54.063 9.60509H43.403L43.136 9.78509L42.735 9.64909H38.231V8.84709H36.715V8.18009H35.778V9.74009L36.003 9.91909V10.6771L35.778 10.8561L35.689 12.3721H25.565C25.505 12.3721 25.446 12.4001 25.386 12.4611C25.237 12.5801 25.12 12.7421 25.028 12.9531C24.91 13.2781 24.316 14.7361 23.247 17.3231C23.096 17.5901 22.949 17.7531 22.799 17.8121C22.711 17.8721 22.472 17.9161 22.086 17.9461L17.448 18.1241C17.27 18.0351 17.048 17.9461 16.778 17.8581C16.303 17.6491 15.916 17.5291 15.618 17.5021C15.292 17.4421 15.068 17.4111 14.95 17.4111C14.83 17.4421 14.609 17.4851 14.283 17.5461C14.012 17.6341 13.747 17.6661 13.478 17.6341L13.165 17.5461L10.89 27.1791L10.801 28.2481L11.292 28.9621L1.70399 28.8731C1.70399 28.3091 1.73399 27.5811 1.79399 26.6891C1.97299 24.9031 2.25399 23.2101 2.64099 21.6031C3.05599 19.9681 3.59199 18.4361 4.24599 17.0091C4.27499 16.9221 4.48399 16.4871 4.87099 15.7161C5.04899 15.3301 5.15399 15.0611 5.18199 14.9141C5.27299 14.5581 5.19699 14.2731 4.95899 14.0661C4.77999 13.8871 4.39599 13.6941 3.79999 13.4871C3.20299 13.2781 2.81799 13.1461 2.63999 13.0861C2.40199 12.9961 2.28199 12.8781 2.28199 12.7291C2.25299 12.5211 2.26799 12.1781 2.32799 11.7031L2.41699 11.0351L0.76599 10.8571C0.64699 10.8571 0.54199 10.8261 0.45399 10.7661C0.24599 10.6181 0.15599 10.4261 0.18499 10.1881C0.24499 9.88909 0.43999 9.74109 0.76599 9.74109C0.94499 9.71009 1.10799 9.72609 1.25599 9.78709L1.47999 8.62409L2.81899 9.47209L3.39899 6.57309L4.33599 4.78909V4.03009L5.04999 4.43209L7.90399 4.47709L8.17299 4.69809H17.895V4.87809H23.335V4.74309H32.703V3.53809H34.932L35.199 3.85309V4.65609L35.511 4.61209L35.824 5.01109V5.72709H36.717V5.10209H38.055V3.80609H42.694L43.005 3.62909L43.406 3.80609H54.066L54.377 3.85209L54.691 3.72009H68.384L68.607 3.98609C68.726 4.25409 68.816 4.56709 68.875 4.92209C68.901 5.36809 68.932 5.91809 68.96 6.57309ZM22.978 12.4601L17.895 12.5051C17.389 13.0091 17.031 13.3821 16.825 13.6201C16.498 14.0361 16.319 14.2731 16.289 14.3341C16.081 14.6611 15.962 15.0321 15.935 15.4481C15.902 15.6561 15.935 15.9531 16.022 16.3401C16.081 16.5181 16.14 16.6701 16.2 16.7861L15.888 17.0091C15.74 16.8021 15.62 16.5491 15.532 16.2501C15.295 15.7161 15.19 15.2691 15.219 14.9141C15.279 14.3201 15.502 13.7681 15.889 13.2641C16.038 13.0251 16.201 12.8311 16.38 12.6831C16.172 12.7121 15.936 12.7721 15.665 12.8611C15.131 13.0401 14.744 13.2471 14.506 13.4861C14.179 13.8411 13.972 14.2291 13.882 14.6451C13.763 15.0911 13.792 15.5071 13.972 15.8931C14.149 16.2491 14.403 16.5491 14.729 16.7861C15.056 17.0251 15.442 17.1861 15.889 17.2771C16.157 17.3051 16.589 17.3221 17.182 17.3221C17.687 17.2911 18.015 17.3221 18.162 17.4101C18.371 17.4701 19.1 17.5011 20.349 17.5011C21.538 17.4701 22.192 17.4241 22.311 17.3661C22.458 17.2781 22.757 16.6101 23.203 15.3611L23.873 13.4861C23.873 13.3971 23.873 13.3051 23.873 13.2171C23.873 13.0391 23.842 12.8901 23.783 12.7711C23.663 12.6521 23.499 12.5641 23.292 12.5041L22.978 12.4601Z" fill="white"/>
<path d="M68.827 8.31215C68.918 7.86715 68.96 7.28715 68.96 6.57315C68.932 5.91815 68.901 5.36815 68.875 4.92215C68.816 4.56715 68.726 4.25415 68.607 3.98615L68.384 3.72015H54.691L54.377 3.85215L54.066 3.80615H43.406L43.005 3.62915L42.694 3.80615H38.055V5.10215H36.717L36.715 6.35175V8.84715H38.231V9.64915H42.735L43.136 9.78515L43.403 9.60515H54.063L54.332 9.51615L54.511 9.64915H68.381C68.442 9.53015 68.501 9.39815 68.558 9.24915C68.707 8.92215 68.796 8.61015 68.827 8.31215Z" fill="#F8AA53"/>
</svg>
