<svg width="43" height="6" viewBox="0 0 43 6" fill="none" xmlns="http://www.w3.org/2000/svg">
<path d="M38.605 0H4.39497C4.2968 0 4.19917 0.0144546 4.10521 0.0428987L0.710246 1.07069C0.288472 1.19838 0 1.58712 0 2.0278V5C0 5.55228 0.447715 6 1 6H2.29339C2.62923 6 2.94264 5.83142 3.12776 5.55121L3.95043 4.30593C4.13555 4.02572 4.44896 3.85714 4.7848 3.85714H38.2152C38.551 3.85714 38.8645 4.02572 39.0496 4.30594L39.8722 5.55121C40.0574 5.83142 40.3708 6 40.7066 6H42C42.5523 6 43 5.55228 43 5V2.0278C43 1.58712 42.7115 1.19838 42.2898 1.07069L38.8948 0.0428987C38.8008 0.0144546 38.7032 0 38.605 0Z" fill="white"/>
</svg>
