<svg width="45" height="8" viewBox="0 0 45 8" fill="none" xmlns="http://www.w3.org/2000/svg">
<path d="M39.605 1H5.39497C5.2968 1 5.19917 1.01445 5.10521 1.0429L1.71025 2.07069C1.28847 2.19838 1 2.58712 1 3.0278V6C1 6.55228 1.44772 7 2 7H3.29339C3.62923 7 3.94264 6.83142 4.12776 6.55121L4.95043 5.30593C5.13555 5.02572 5.44896 4.85714 5.7848 4.85714H39.2152C39.551 4.85714 39.8645 5.02572 40.0496 5.30594L40.8722 6.55121C41.0574 6.83142 41.3708 7 41.7066 7H43C43.5523 7 44 6.55228 44 6V3.0278C44 2.58712 43.7115 2.19838 43.2898 2.07069L39.8948 1.0429C39.8008 1.01445 39.7032 1 39.605 1Z" fill="white" fill-opacity="0.01" stroke="white"/>
</svg>
