<svg width="39" height="37" viewBox="0 0 39 37" fill="none" xmlns="http://www.w3.org/2000/svg">
<path d="M15.6404 11.4589L3.09824 6.91978C2.21864 6.60145 2.21865 5.35748 3.09824 5.03915L15.6404 0.50006L37 0.50006C38.1046 0.500059 39 1.39549 39 2.50006L39 9.45886C39 10.5634 38.1046 11.4589 37 11.4589L15.6404 11.4589Z" fill="#D9D9D9"/>
<path d="M15.6404 24.0758L3.09824 19.5367C2.21864 19.2184 2.21865 17.9744 3.09824 17.6561L15.6404 13.117L37 13.117C38.1046 13.117 39 14.0124 39 15.117L39 22.0758C39 23.1804 38.1046 24.0758 37 24.0758L15.6404 24.0758Z" fill="#D9D9D9"/>
<path d="M15.6404 36.6207L3.09824 32.0816C2.21864 31.7633 2.21865 30.5193 3.09824 30.201L15.6404 25.6619L37 25.6619C38.1046 25.6619 39 26.5574 39 27.6619L39 34.6207C39 35.7253 38.1046 36.6207 37 36.6207L15.6404 36.6207Z" fill="#D9D9D9"/>
</svg>
